<svg width="300" height="500" viewBox="0 0 300 500" fill="none" xmlns="http://www.w3.org/2000/svg">
<path d="M6.43922 1.96131C6.82775 1.96131 7.21627 1.73512 7.37168 1.50893C7.44939 1.1131 8.38185 1 11.3347 1C14.3652 1 15.0645 1.1131 15.0645 1.50893C15.0645 1.73512 15.3753 1.96131 15.7639 1.96131C16.1524 1.96131 16.4632 2.1875 16.4632 2.47024C16.4632 2.69643 16.774 2.92262 17.0848 2.92262C17.4734 2.92262 17.7842 3.14881 17.7842 3.43155C17.7842 3.65774 18.095 3.88393 18.4058 3.88393C18.8721 3.88393 19.1052 4.20436 19.1052 4.84524C19.1052 5.52381 19.3124 5.86309 19.7268 5.86309C20.193 5.86309 20.4261 6.18353 20.4261 6.8244C20.4261 7.46528 20.6334 7.78571 21.0478 7.78571C21.4363 7.78571 21.7471 8.0119 21.7471 8.23809C21.7471 8.52083 22.058 8.74702 22.3688 8.74702C22.7573 8.74702 23.0681 8.97321 23.0681 9.1994C23.0681 9.48214 23.3789 9.70833 23.7675 9.70833C24.0783 9.70833 24.3891 9.93452 24.3891 10.2173C24.3891 10.5566 24.933 10.6696 26.4094 10.6696C27.8858 10.6696 28.352 10.7827 28.352 11.1786C28.352 11.4802 28.8183 11.631 29.7507 11.631C30.6314 11.631 31.0717 11.8006 31.0717 12.1399C31.0717 12.3661 31.3825 12.5923 31.6934 12.5923C32.0819 12.5923 32.3927 12.8185 32.3927 13.1012C32.3927 13.3274 32.6258 13.6667 32.9366 13.7232C33.2993 13.7986 33.3252 13.9306 33.0143 14.119C32.7812 14.2887 30.7609 15.0804 24.4668 17.2857L23.4566 16.5506C22.835 16.1548 22.2134 15.9286 22.058 16.0417C21.8248 16.2113 21.514 16.3244 21.3586 16.3244C21.2032 16.3244 20.737 16.4375 20.4261 16.5506C20.0376 16.6637 19.2606 16.7768 18.7166 16.8899C17.8619 16.9464 17.2402 17.4554 16.2301 18.8125C14.9868 20.4524 14.8314 20.5655 13.9766 20.1696C13.355 19.8304 12.4225 19.7738 8.07103 20.1696L8.61496 10.2173L5.58447 9.14286L5.66217 5.52381C5.81758 2.63988 5.89529 1.96131 6.43922 1.96131Z" fill="white" fill-opacity="0.6" stroke="#4A4A4A" stroke-width="0.5"/>
<path d="M211.036 397.795C210.88 396.494 211.036 396.325 211.891 396.212C212.435 396.155 213.212 396.099 213.678 396.042C214.066 396.042 215.543 396.438 216.786 396.89C218.573 397.512 219.506 397.682 222.381 397.343V402.149H220.438C218.962 402.149 218.418 402.036 218.418 401.697C218.418 401.414 218.107 401.188 217.796 401.188C217.408 401.188 217.097 400.962 217.097 400.679C217.097 400.34 216.553 400.227 215.077 400.227C213.678 400.227 213.134 400.113 213.134 399.718C213.134 399.435 212.745 399.265 212.124 399.265C211.269 399.265 211.114 399.039 211.036 397.795Z" fill="white" fill-opacity="0.6" stroke="#4A4A4A" stroke-width="0.5"/>
<path d="M210.259 396.324C210.492 396.211 211.114 396.042 211.58 395.929C212.046 395.816 212.746 395.759 213.134 395.759C213.678 395.702 213.678 395.759 213.134 396.042C212.746 396.211 212.124 396.324 211.658 396.324C211.036 396.324 210.881 396.607 210.958 397.682C211.114 398.53 210.881 399.039 210.57 399.152C210.259 399.208 210.026 399.095 210.026 398.926C210.026 398.756 210.259 398.586 210.492 398.586C210.725 398.586 210.648 398.247 210.337 397.568C210.026 396.89 209.948 396.438 210.259 396.324Z" fill="white" fill-opacity="0.6" stroke="#4A4A4A" stroke-width="0.5"/>
<path d="M198.215 397.907C198.292 397.681 198.525 396.946 198.681 396.268C198.914 395.589 199.225 395.08 199.458 395.08C199.613 395.08 199.846 395.25 199.846 395.476C199.846 395.646 199.613 396.437 199.38 397.116C199.147 397.738 198.681 398.303 198.526 398.303C198.292 398.303 198.137 398.077 198.215 397.907Z" fill="white" fill-opacity="0.6" stroke="#4A4A4A" stroke-width="0.5"/>
<path d="M214.999 395.137C215.854 394.628 216.242 394.119 216.242 393.384L216.32 392.31L216.553 393.271C216.631 393.893 216.476 394.458 216.009 394.741C215.621 394.967 215.31 395.307 215.31 395.476C215.31 395.589 216.165 395.985 217.175 396.324C218.574 396.777 219.584 396.89 220.749 396.72C221.993 396.551 222.381 396.664 222.381 396.946C222.381 397.173 221.682 397.399 220.749 397.455C219.584 397.512 218.418 397.286 216.631 396.664C215.31 396.098 214.144 395.759 213.989 395.816C213.834 395.816 214.3 395.533 214.999 395.137Z" fill="white" fill-opacity="0.6" stroke="#4A4A4A" stroke-width="0.5"/>
<path d="M203.343 385.92C203.421 385.806 205.907 385.298 208.705 384.789C211.502 384.28 213.989 383.884 214.299 383.884C214.533 383.884 214.766 383.997 214.766 384.167C214.843 384.28 214.455 384.506 213.833 384.562C213.367 384.675 210.958 385.071 204.198 386.202L202.799 388.917C202.1 390.443 201.4 391.8 201.245 391.914C201.09 392.083 200.157 392.083 199.225 391.97C198.37 391.914 197.593 391.687 197.593 391.518C197.593 391.292 198.215 391.235 200.468 391.518L201.789 388.86C202.488 387.39 203.188 386.089 203.343 385.92Z" fill="white" fill-opacity="0.6" stroke="#4A4A4A" stroke-width="0.5"/>
<path d="M154.08 376.815C153.924 376.702 153.769 376.193 153.769 375.798C153.846 375.345 154.002 375.119 154.235 375.176C154.468 375.289 155.012 375.798 156.411 377.324L155.401 377.211C154.857 377.211 154.313 376.985 154.08 376.815Z" fill="white" fill-opacity="0.6" stroke="#4A4A4A" stroke-width="0.5"/>
<path d="M153.301 374.61C152.757 374.497 152.446 374.158 152.446 373.705C152.446 373.027 152.524 373.027 154.001 374.101C154.933 374.723 157.42 377.042 159.673 379.247C163.481 382.979 164.024 383.375 168.609 385.58C172.65 387.559 173.815 387.955 175.214 387.955C176.69 388.012 177.157 387.842 177.701 387.164C178.011 386.711 178.633 386.372 178.866 386.372C179.177 386.372 179.41 386.428 179.41 386.542C179.41 386.598 179.021 387.107 178.4 387.616C177.778 388.295 177.079 388.634 176.38 388.634C175.447 388.634 175.369 388.69 175.913 388.973C176.457 389.199 176.38 389.256 175.68 389.143C175.214 389.03 174.204 388.86 173.504 388.69C172.805 388.577 172.106 388.295 171.95 388.068C171.795 387.899 170.785 387.277 169.541 386.768C168.454 386.146 167.366 385.693 167.133 385.693C166.977 385.693 167.133 385.919 167.521 386.259C167.987 386.768 167.987 386.768 167.521 386.428C167.133 386.202 166.822 385.863 166.822 385.637C166.822 385.467 166.511 385.184 166.122 385.071C165.656 384.958 165.579 385.071 165.889 385.411C166.122 385.637 165.656 385.467 164.801 384.902C163.947 384.336 161.926 382.64 160.372 381.056C158.818 379.473 157.264 378.116 156.953 378.059C156.642 378.059 156.487 377.72 156.487 377.437C156.487 377.155 156.021 376.419 155.321 375.797C154.7 375.232 153.767 374.667 153.301 374.61Z" fill="white" fill-opacity="0.6" stroke="#4A4A4A" stroke-width="0.5"/>
<path d="M167.212 385.863C166.745 385.807 165.968 385.411 165.502 385.015C164.725 384.45 164.88 384.506 166.512 385.241C167.522 385.694 168.377 386.259 168.377 386.372C168.377 386.542 168.61 386.598 168.843 386.542C168.999 386.429 169.387 386.429 169.465 386.599C169.543 386.768 169.232 386.881 168.766 386.881C168.299 386.938 167.911 386.825 167.911 386.542C167.911 386.259 167.6 385.976 167.212 385.863Z" fill="white" fill-opacity="0.6" stroke="#4A4A4A" stroke-width="0.5"/>
<path d="M148.639 362.509C148.717 362.056 148.95 360.812 148.95 359.738L149.028 357.815L149.183 359.738C149.261 360.812 149.183 362.057 148.406 363.301L148.639 362.509Z" fill="white" fill-opacity="0.6" stroke="#4A4A4A" stroke-width="0.5"/>
<path d="M160.839 353.462C160.839 353.292 161.149 352.613 161.538 351.991C162.004 351.426 162.548 350.86 162.859 350.86C163.403 350.86 163.247 351.256 162.47 352.331C161.926 353.122 161.382 353.801 161.149 353.801C160.994 353.801 160.839 353.631 160.839 353.462Z" fill="white" fill-opacity="0.6" stroke="#4A4A4A" stroke-width="0.5"/>
<path d="M154.857 349.898C155.245 349.898 155.556 349.673 155.556 349.446C155.556 349.051 156.1 348.938 157.965 348.938C159.752 348.938 160.451 349.051 160.607 349.446C160.762 349.673 161.151 349.898 161.539 349.898C161.928 349.898 162.161 350.182 162.161 350.634C162.161 351.03 161.85 351.708 161.539 352.161C161.151 352.613 160.918 353.179 160.84 353.405C160.84 353.574 161.073 353.801 161.306 353.801C161.539 353.801 162.083 353.292 162.549 352.67C163.016 351.953 163.534 351.633 164.104 351.708C164.492 351.765 164.803 352.047 164.803 352.329C164.803 352.612 165.114 352.839 165.502 352.839C165.813 352.839 166.124 353.065 166.124 353.292C166.124 353.574 166.435 353.801 166.823 353.801C167.212 353.801 167.523 354.027 167.523 354.253C167.523 354.536 167.833 354.762 168.144 354.762C168.533 354.762 168.766 354.932 168.61 355.214C168.455 355.497 168.61 355.723 169.077 355.723C169.387 355.723 169.698 355.949 169.698 356.176C169.698 356.458 170.009 356.685 170.398 356.685C170.812 356.685 171.019 357.005 171.019 357.646C171.019 358.287 171.252 358.607 171.719 358.607C172.133 358.607 172.34 358.928 172.34 359.568C172.34 360.209 172.573 360.53 173.04 360.53C173.584 360.53 173.661 360.982 173.661 362.509C173.661 363.979 173.817 364.432 174.361 364.432C174.775 364.432 174.982 364.752 174.982 365.393C174.982 366.034 175.215 366.354 175.682 366.354C176.07 366.354 176.381 366.58 176.381 366.863C176.381 367.202 176.847 367.315 178.324 367.315C179.8 367.315 180.344 367.429 180.344 367.824C180.344 368.126 180.784 368.277 181.665 368.277C182.546 368.277 182.986 368.446 182.986 368.786C182.986 369.087 183.426 369.238 184.307 369.238C185.187 369.238 185.628 369.408 185.628 369.747C185.628 370.03 185.939 370.256 186.327 370.256C186.638 370.256 186.949 370.482 186.949 370.708C186.949 371.048 187.415 371.217 188.347 371.217C189.228 371.217 189.668 371.368 189.668 371.67C189.668 371.952 189.979 372.178 190.29 372.178C190.679 372.178 190.989 372.405 190.989 372.631C190.989 372.914 191.3 373.14 191.611 373.14C192 373.14 192.31 373.366 192.31 373.592C192.31 373.875 192.621 374.101 192.932 374.101C193.321 374.101 193.631 374.326 193.631 374.609C193.631 374.911 194.072 375.062 194.952 375.062C195.833 375.062 196.273 375.232 196.273 375.571C196.273 375.798 196.584 376.023 196.973 376.023C197.284 376.023 197.594 376.25 197.594 376.533C197.594 376.834 198.035 376.984 198.915 376.984C199.796 376.984 200.236 377.154 200.236 377.493C200.236 377.719 200.547 377.946 200.936 377.946C201.324 377.946 201.635 378.172 201.635 378.454C201.635 378.794 202.101 378.964 203.578 378.964C205.054 378.964 205.598 379.077 205.598 379.417C205.598 379.756 206.038 379.926 206.919 379.926C207.8 379.926 208.24 380.076 208.24 380.378C208.24 380.717 208.68 380.887 209.561 380.887C210.442 380.887 210.882 381.038 210.882 381.339C210.882 381.622 211.193 381.848 211.581 381.848C211.892 381.848 212.203 382.074 212.203 382.301C212.203 382.583 212.514 382.81 212.902 382.81C213.213 382.81 213.524 383.036 213.524 383.375C213.524 383.827 212.591 384.11 208.784 384.732C206.22 385.185 203.888 385.693 203.578 385.863C203.267 386.033 202.49 387.39 200.469 391.461L198.993 391.234C197.983 391.064 197.594 391.179 197.594 391.461C197.594 391.631 198.294 391.97 199.071 392.14C200.003 392.31 200.703 392.253 201.091 392.027C201.402 391.857 202.101 390.557 202.723 389.199C203.5 387.333 204.044 386.598 204.821 386.372C205.365 386.146 207.774 385.693 210.26 385.298C212.669 384.845 215 384.562 215.467 384.618C215.855 384.731 216.244 384.902 216.244 385.071C216.244 385.241 216.632 385.693 217.098 386.033C217.565 386.372 218.186 386.655 218.419 386.655C218.652 386.655 218.886 386.881 218.886 387.164C218.886 387.39 219.119 387.616 219.429 387.616C219.74 387.616 219.973 388.012 219.896 388.634C219.818 389.313 219.973 389.595 220.44 389.595C220.854 389.595 221.061 389.916 221.061 390.557C221.061 391.197 221.294 391.518 221.761 391.518C222.305 391.518 222.382 392.027 222.382 396.664L220.75 396.777C219.818 396.777 218.342 396.607 217.331 396.268C216.321 395.929 215.467 395.589 215.311 395.533C215.233 395.42 215.467 395.137 215.933 394.854C216.399 394.458 216.632 393.949 216.321 392.31V393.271C216.244 393.836 215.933 394.515 215.467 394.798C215 395.137 213.679 395.589 212.436 395.815C210.493 396.211 210.26 396.324 210.338 397.003C210.416 397.455 210.338 398.134 210.26 398.53C210.027 399.208 209.872 399.265 204.51 399.265C200.392 399.265 198.915 399.151 198.915 398.868C198.915 398.642 199.226 397.682 199.615 396.777C200.081 395.646 200.081 394.967 199.848 394.911C199.615 394.798 199.304 394.911 199.148 395.137C199.071 395.363 198.76 396.155 198.527 396.946C198.216 397.795 197.75 398.303 197.361 398.303C197.05 398.303 196.506 398.021 196.273 397.625C196.04 397.286 195.963 396.833 196.04 396.664C196.196 396.494 196.04 396.324 195.807 396.324C195.652 396.324 194.564 395.024 193.554 393.384C192.466 391.744 191.611 390.329 191.611 390.273C191.611 390.16 191.456 389.878 191.3 389.652C191.067 389.426 190.756 389.313 190.523 389.426C190.29 389.539 189.358 388.972 186.949 386.993L182.675 387.786C180.266 388.238 178.246 388.521 178.09 388.464C178.013 388.408 178.246 387.955 178.712 387.503C179.101 387.051 179.411 386.598 179.411 386.542C179.411 386.429 179.178 386.372 178.945 386.372C178.634 386.372 178.013 386.711 177.702 387.164C177.158 387.786 176.692 387.954 175.371 387.954C173.972 387.954 172.729 387.503 168.688 385.467C163.87 383.092 163.482 382.753 159.597 378.964C157.343 376.702 154.857 374.497 154.002 374.045C153.147 373.536 152.448 372.857 152.448 372.461C152.448 372.122 152.137 371.839 151.748 371.839C151.282 371.839 151.127 371.442 151.127 370.368C151.127 369.35 150.894 368.954 150.427 368.954C149.884 368.954 149.806 368.333 149.65 365.958C149.573 364.318 149.495 361.943 149.495 360.699C149.417 359.512 149.262 357.307 149.106 355.949C148.951 353.857 149.029 353.461 149.573 353.461C149.884 353.461 150.194 353.235 150.194 352.952C150.194 352.726 150.505 352.5 150.894 352.5C151.205 352.5 151.515 352.274 151.515 351.991C151.515 351.765 151.826 351.539 152.215 351.539C152.526 351.539 152.836 351.313 152.836 351.03C152.836 350.804 153.147 350.577 153.536 350.577C153.924 350.577 154.235 350.408 154.235 350.238C154.235 350.068 154.546 349.898 154.857 349.898Z" fill="white" fill-opacity="0.6" stroke="#4A4A4A" stroke-width="0.5"/>
<path d="M216.32 392.139C216.242 392.253 216.242 391.065 216.242 389.538C216.242 387.842 216.398 386.654 216.631 386.654C216.942 386.654 216.942 387.672 216.864 389.369C216.631 390.782 216.475 392.083 216.32 392.139Z" fill="white" fill-opacity="0.6" stroke="#4A4A4A" stroke-width="0.5"/>
<path d="M182.13 375.572C181.897 375.006 181.663 373.366 181.663 371.953C181.663 370.369 181.819 369.238 182.13 369.238C182.363 369.238 182.518 370.369 182.518 371.953C182.518 373.366 182.829 375.063 183.14 375.628C183.606 376.533 183.528 376.872 182.363 378.964C181.586 380.209 180.886 381.17 180.653 381.17C180.498 381.17 180.342 381.057 180.342 380.887C180.342 380.717 180.886 379.643 181.508 378.569C182.44 376.816 182.596 376.363 182.13 375.572Z" fill="white" fill-opacity="0.6" stroke="#4A4A4A" stroke-width="0.5"/>
<path d="M166.823 329.598C166.279 329.598 166.124 329.032 166.124 326.714V323.773H170.786C174.671 323.773 175.448 323.887 175.448 324.282C175.448 324.584 175.889 324.735 176.769 324.735C177.65 324.735 178.09 324.904 178.09 325.244C178.09 325.526 178.401 325.753 178.79 325.753C179.1 325.753 179.411 325.979 179.411 326.205C179.411 326.488 179.722 326.714 180.111 326.714C180.655 326.714 180.81 327.279 180.81 330.107C180.81 332.878 180.655 333.443 180.111 333.443C179.644 333.443 179.411 333.782 179.411 334.461C179.411 335.366 179.411 335.422 177.158 335.422C175.526 335.422 174.594 335.253 174.127 334.913C173.816 334.631 173.039 334.404 172.495 334.461C171.874 334.461 171.485 334.235 171.485 333.952C171.485 333.669 171.175 333.443 170.786 333.443C170.475 333.443 170.164 333.217 170.164 332.991C170.164 332.708 169.854 332.482 169.465 332.482C169.154 332.482 168.843 332.256 168.843 332.029C168.843 331.747 168.533 331.52 168.144 331.52C167.73 331.52 167.522 331.2 167.522 330.559C167.522 329.918 167.289 329.598 166.823 329.598Z" fill="white" fill-opacity="0.6" stroke="#4A4A4A" stroke-width="0.5"/>
<path fill-rule="evenodd" clip-rule="evenodd" d="M121.599 302.342C122.376 302.399 123.774 302.512 124.862 302.512C126.261 302.512 126.727 302.625 126.727 303.021C126.727 303.36 127.271 303.473 128.748 303.473C130.224 303.473 130.69 303.586 130.69 303.982C130.69 304.284 131.131 304.434 132.011 304.434C132.944 304.434 133.41 304.604 133.41 304.943C133.41 305.169 133.721 305.396 134.032 305.396C134.42 305.396 134.731 305.622 134.731 305.905C134.731 306.206 135.171 306.357 136.052 306.357C136.933 306.357 137.373 306.527 137.373 306.866C137.373 307.149 137.684 307.375 137.994 307.375C138.461 307.375 138.694 307.695 138.694 308.336C138.694 308.977 138.927 309.297 139.393 309.297C139.704 309.297 140.015 309.467 140.015 309.58C140.015 309.75 140.403 310.202 140.87 310.598C141.414 310.937 142.113 311.22 142.424 311.22C142.812 311.22 143.201 311.39 143.356 311.559C143.512 311.729 143.356 312.181 143.045 312.577C142.734 312.973 142.579 313.425 142.579 313.595C142.657 313.708 142.424 313.821 142.113 313.821C141.802 313.821 141.724 313.878 141.957 313.934C142.113 314.047 141.802 314.387 141.336 314.783C140.87 315.122 140.481 315.574 140.481 315.744C140.481 315.914 140.792 316.253 141.103 316.536C141.491 316.818 141.802 317.158 141.802 317.327C141.802 317.497 142.035 317.667 142.268 317.667C142.424 317.667 142.734 318.006 142.89 318.458C143.045 318.911 143.356 319.193 143.589 319.137C143.822 319.024 144.133 319.193 144.211 319.419C144.366 319.702 144.133 319.985 143.822 320.098C143.434 320.155 143.123 320.098 143.123 319.928C143.123 319.759 142.579 319.533 141.957 319.419C141.18 319.306 140.636 319.363 140.636 319.589C140.481 319.759 140.015 319.928 138.461 319.928L139.393 320.55C139.859 320.946 140.714 321.625 141.258 322.077C142.035 322.699 142.113 322.982 141.724 323.547C141.413 323.943 141.025 324.396 140.714 324.509C140.481 324.622 140.17 324.622 140.015 324.396C139.859 324.226 139.082 324.056 138.228 324C136.907 323.943 136.285 323.661 134.964 322.586C134.109 321.851 133.41 321.286 133.41 321.455C133.332 321.625 133.021 321.399 132.555 321.003C132.167 320.607 131.7 320.381 131.545 320.494C131.312 320.607 131.079 320.494 130.923 320.155C130.846 319.872 130.379 319.589 130.069 319.589C129.68 319.589 129.292 319.363 129.136 319.137C129.058 318.854 128.748 318.684 128.514 318.797C128.281 318.911 127.737 318.628 127.427 318.232C127.038 317.836 126.727 317.667 126.727 317.836C126.65 318.006 126.494 317.893 126.261 317.61C125.873 317.045 125.795 317.101 124.94 317.78C124.474 318.175 124.085 318.289 124.085 318.062C124.085 317.836 123.774 317.667 123.386 317.667C123.075 317.667 122.764 317.44 122.764 317.158C122.764 316.931 122.453 316.705 122.065 316.705C121.754 316.705 121.443 316.479 121.443 316.196C121.443 315.97 121.133 315.744 120.744 315.744C120.33 315.744 120.122 315.423 120.122 314.783C120.122 314.142 119.889 313.821 119.423 313.821C119.034 313.821 118.724 313.595 118.724 313.312C118.724 313.03 118.413 312.803 118.102 312.803C117.636 312.803 117.403 312.483 117.403 311.842C117.403 311.201 117.195 310.881 116.781 310.881C116.237 310.881 116.082 310.372 116.082 307.997C116.082 305.622 116.237 305.113 116.781 305.113C117.092 305.113 117.403 304.887 117.403 304.604C117.403 304.321 117.713 304.095 118.102 304.095C118.413 304.095 118.724 303.869 118.724 303.643C118.724 303.36 119.034 303.134 119.423 303.134C119.812 303.134 120.122 302.908 120.2 302.625C120.2 302.229 120.511 302.172 121.599 302.342ZM120.433 305.848C120.589 305.905 121.366 306.074 122.065 306.187L123.386 306.47C121.366 304.887 120.589 304.434 120.433 304.434C120.2 304.434 120.122 304.717 120.122 305.113C120.122 305.452 120.2 305.791 120.433 305.848Z" fill="white" fill-opacity="0.6" stroke="#4A4A4A" stroke-width="0.5"/>
<path d="M151.125 280.401C150.582 280.062 150.193 279.666 150.193 279.553C150.193 279.384 150.892 279.271 151.747 279.271C153.146 279.271 153.301 279.384 153.301 280.232C153.301 280.91 153.534 281.25 154.001 281.25C154.311 281.25 154.622 281.476 154.622 281.702C154.622 281.985 154.933 282.211 155.322 282.211C155.632 282.211 155.943 282.437 155.943 282.663C155.943 282.946 156.254 283.172 156.642 283.172C157.057 283.172 157.264 283.493 157.264 284.134C157.264 284.774 157.497 285.095 157.963 285.095C158.43 285.095 158.663 285.491 158.663 286.565C158.663 287.64 158.818 287.979 159.284 287.979C159.828 287.979 159.984 288.488 159.984 293.464L158.663 292.842C157.653 292.333 157.264 291.937 157.264 291.202C157.264 290.693 156.099 288.205 154.622 285.66C153.146 283.116 151.592 280.797 151.125 280.401Z" fill="white" fill-opacity="0.6" stroke="#4A4A4A" stroke-width="0.5"/>
<path d="M150.271 280.741C149.805 280.401 149.339 279.893 149.105 279.723C148.95 279.497 149.028 279.271 149.261 279.271C149.572 279.271 150.271 279.779 150.815 280.345C151.437 280.91 153.146 283.455 154.622 286C156.41 289.053 157.187 290.863 157.109 291.372C156.954 291.937 157.109 292.276 157.575 292.503C158.041 292.616 158.741 293.012 159.129 293.294C159.596 293.577 159.984 294.03 159.984 294.312C159.984 294.651 159.673 294.595 158.974 294.086C158.352 293.634 157.498 293.068 156.954 292.785C156.254 292.333 156.021 291.937 156.254 291.485C156.41 290.976 155.555 289.166 153.768 286.056C152.291 283.512 150.659 281.08 150.271 280.741Z" fill="white" fill-opacity="0.6" stroke="#4A4A4A" stroke-width="0.5"/>
<path d="M145.997 288.94C145.453 288.94 145.376 288.205 145.376 284.134V279.271H146.852C148.095 279.271 148.717 279.497 149.649 280.345C150.349 280.91 152.136 283.512 153.69 286.169C155.555 289.336 156.332 291.146 156.177 291.598C155.943 292.163 156.177 292.503 157.342 293.125C158.197 293.577 158.974 293.973 159.052 294.086C159.207 294.143 159.362 294.765 159.751 296.688H156.565C154.001 296.688 153.302 296.631 153.302 296.235C153.302 295.952 152.991 295.727 152.68 295.727C152.291 295.727 151.981 295.5 151.981 295.273C151.981 294.991 151.67 294.766 151.281 294.766C150.97 294.766 150.66 294.538 150.66 294.312C150.66 294.03 150.349 293.803 149.96 293.803C149.649 293.803 149.339 293.577 149.339 293.294C149.339 293.068 149.028 292.842 148.639 292.842C148.225 292.842 148.018 292.523 148.018 291.882C148.018 291.241 147.784 290.919 147.318 290.919C146.904 290.919 146.697 290.599 146.697 289.958C146.697 289.279 146.463 288.94 145.997 288.94Z" fill="white" fill-opacity="0.6" stroke="#4A4A4A" stroke-width="0.5"/>
<path d="M6.05065 10.1039C5.19589 9.70811 4.49655 9.25573 4.41885 9.08608C4.34114 8.91644 5.19589 9.14263 7.99327 10.3301V19.9998H10.8683C12.5002 19.9998 13.8212 20.1694 13.9766 20.3391C14.132 20.5087 14.4428 20.6783 14.6759 20.6783C14.909 20.6783 15.6084 19.9432 16.3077 19.0385C17.0071 18.0772 17.9395 17.2289 18.4058 17.1158C18.872 17.0028 20.4261 17.0028 21.9025 17.1724C24.3113 17.4551 24.5445 17.3986 28.2743 16.0414C30.45 15.2498 32.3927 14.6843 32.7035 14.7408C33.0143 14.7974 33.3251 14.6278 33.4028 14.2885C33.5582 14.0057 33.6359 14.1188 33.6359 14.6278C33.7136 15.3629 33.5582 15.476 32.7035 15.3629C32.0818 15.3063 30.2169 15.8153 27.8858 16.6635C25.1661 17.6248 23.612 18.0772 22.7572 17.9075C22.0579 17.851 20.7369 17.7379 18.1727 17.4551L16.8517 19.4343C16.0746 20.5652 15.3753 21.5266 15.2976 21.5266C15.2199 21.5831 14.5982 21.3569 13.8989 20.9611C12.8887 20.3956 12.3448 20.3391 10.4798 20.4522C8.92573 20.6218 7.91557 20.9611 6.98311 21.5831C6.36147 22.0355 5.81753 22.2617 5.81753 22.1486C5.81753 21.9789 6.12835 21.5266 6.59458 21.1873C7.21622 20.6783 7.37163 19.7736 7.68245 10.8391L6.05065 10.1039Z" fill="white" fill-opacity="0.6" stroke="#4A4A4A" stroke-width="0.5"/>
<path d="M3.79742 12.5927C4.26365 12.5927 4.49676 12.1968 4.49676 11.1224C4.57447 10.3308 4.65217 9.70874 4.88529 9.76529C4.96299 9.82184 5.66234 10.1046 7.60496 10.8397L7.29414 15.6462C7.13873 18.3605 6.82791 20.7921 6.6725 21.0748C6.36168 21.4518 5.92135 21.5837 5.35152 21.4706C4.88529 21.3576 4.49676 21.0748 4.49676 20.8486C4.49676 20.5659 4.18594 20.3397 3.87512 20.3397C3.64201 20.3397 3.87512 19.9439 4.57447 19.4915C5.74004 18.5867 5.74004 18.5302 5.1184 17.4558C4.49676 16.4945 4.34135 16.3814 3.95283 16.8903C3.71971 17.173 3.64201 17.5689 3.71971 17.682C3.87512 17.8516 3.79742 18.1343 3.5643 18.4171C3.33119 18.7564 3.17578 17.7951 3.17578 15.7593C3.17578 13.1581 3.25348 12.5927 3.79742 12.5927Z" fill="white" fill-opacity="0.6" stroke="#4A4A4A" stroke-width="0.5"/>
<path d="M8.30434 15.8155C8.22664 16.6637 8.14893 16.0417 8.14893 14.5715C8.14893 13.0447 8.22664 12.3661 8.30434 13.1012C8.38205 13.7798 8.38205 15.0238 8.30434 15.8155Z" fill="white" fill-opacity="0.6" stroke="#4A4A4A" stroke-width="0.5"/>
<path d="M7.44936 17.7948C7.37166 18.5865 7.29395 18.021 7.29395 16.4942C7.29395 14.9674 7.37166 14.3454 7.44936 15.024C7.52707 15.7591 7.52707 16.9466 7.44936 17.7948Z" fill="white" fill-opacity="0.6" stroke="#4A4A4A" stroke-width="0.5"/>
<path d="M21.2812 17.9073C24.0786 18.1335 24.3117 18.077 27.7307 16.8895C30.2173 15.9847 31.7713 15.5889 33.0923 15.5889C34.3356 15.5889 34.9572 15.7397 34.9572 16.0412C35.035 16.2674 35.3458 16.4936 35.7343 16.4936C36.2782 16.4936 36.3559 17.1722 36.3559 20.8478C36.3559 24.4668 36.4336 25.202 37.0553 25.202C37.5992 25.202 37.6769 26.0502 37.6769 30.9698C37.6769 35.946 37.7546 36.7942 38.3763 36.7942C38.9202 36.7942 38.9979 37.3032 38.9202 39.6782C38.8425 41.8835 38.9202 42.6186 39.3087 42.6186C39.6973 42.6186 39.9304 43.0145 39.9304 43.5799C39.9304 44.2208 40.1376 44.5413 40.552 44.5413C41.0182 44.5413 41.2513 44.8617 41.2513 45.5026C41.2513 46.1434 41.4586 46.4639 41.873 46.4639C42.2615 46.4639 42.5723 46.6901 42.5723 46.9728C42.5723 47.199 42.8832 47.4252 43.194 47.4252C43.6602 47.4252 43.8933 47.7456 43.8933 48.3865C43.8933 49.0274 44.1264 49.3478 44.5927 49.3478C45.0071 49.3478 45.2143 49.6871 45.2143 50.3657C45.2143 51.0065 45.4474 51.327 45.9136 51.327C46.4576 51.327 46.5353 52.0055 46.5353 55.6811C46.5353 59.3002 46.4576 60.0353 45.9136 60.0353C45.5251 60.0353 45.2143 60.2615 45.2143 60.4877C45.2143 60.7704 44.9035 60.9966 44.5927 60.9966C44.2041 60.9966 43.8933 61.2228 43.8933 61.449C43.8933 61.7317 43.5825 61.9579 43.194 61.9579C42.8832 61.9579 42.5723 62.1841 42.5723 62.4103C42.5723 62.693 42.2615 62.9192 41.873 62.9192C41.4068 62.9192 41.2513 63.3151 41.2513 64.3895C41.2513 65.577 41.0959 65.8032 40.4743 65.7466C39.8527 65.6335 39.6195 65.2942 39.5418 64.0502C39.3864 62.5234 39.3087 62.4103 37.133 61.3359C35.3458 60.5442 34.491 60.318 33.6363 60.4877C32.4707 60.6008 32.393 60.6008 32.7038 59.9222C32.9369 59.5264 33.0146 58.6216 33.0146 57.943C32.9369 57.2079 32.7038 56.3032 32.4707 55.9073C32.1599 55.5115 31.6159 55.1722 31.1497 55.1722C30.7612 55.1722 29.5956 54.4936 28.7409 53.6454C27.1868 52.2317 27.0313 51.8924 26.7205 49.0651C26.4097 47.0859 25.9435 45.446 25.3995 44.4282C24.4671 42.9579 24.234 42.9014 20.5818 41.8835C18.4061 41.318 16.3081 40.5264 15.9195 40.1871C15.2979 39.7347 15.0648 38.9996 15.0648 37.6424C15.0648 36.2288 14.9871 35.8329 14.4432 35.8329C13.9769 35.8329 13.7438 35.4371 13.7438 34.3627C13.7438 33.2883 13.5884 32.949 13.1222 32.949C12.6559 32.949 12.4228 32.5532 12.4228 31.4788C12.4228 30.6871 12.2674 30.0085 12.0343 30.0085C11.7235 30.0085 11.5681 29.7258 11.5681 29.3865C11.5681 29.0472 11.1795 28.4817 10.6356 28.1424C10.1693 27.8597 9.78082 27.2942 9.78082 26.8418C9.78082 26.446 9.5477 26.1633 9.08147 26.1633C8.66705 26.1633 8.45983 25.8428 8.45983 25.202C8.45983 24.5611 8.22672 24.2407 7.76049 24.2407C7.44967 24.2407 7.13885 24.0145 7.13885 23.7317C7.13885 23.449 6.82803 23.2228 6.43951 23.2228C6.12869 23.2228 5.81787 23.0532 5.81787 22.827C5.81787 22.6573 6.3618 22.0353 7.06115 21.5264C8.14902 20.8478 8.77065 20.6782 10.791 20.6782C12.112 20.6782 13.433 20.9043 13.9769 21.1305C14.4432 21.4698 14.9871 21.6395 15.2202 21.6395C15.3756 21.6395 16.2304 20.7912 18.4061 17.6811L21.2812 17.9073Z" fill="white" fill-opacity="0.6" stroke="#4A4A4A" stroke-width="0.5"/>
<path d="M17.1628 42.2798C16.7742 41.7143 16.4634 41.1489 16.4634 40.9792C16.4634 40.753 16.7742 40.753 17.2405 40.9227C17.629 41.0923 19.4939 41.6578 21.2811 42.1667C24.3893 43.0149 24.6224 43.1846 25.4772 44.5417C25.9434 45.3899 26.4874 47.256 26.7205 49.0655C27.0313 51.8929 27.1867 52.2322 28.7408 53.6459C29.5955 54.4941 30.7611 55.1727 31.1496 55.1727C31.6159 55.1727 32.1598 55.512 32.4706 55.9078C32.7037 56.3036 32.9369 57.2084 33.0146 57.9435C33.0146 58.6221 32.9369 59.5268 32.7037 59.9227C32.3929 60.6013 32.4706 60.6013 33.5585 60.4882C34.491 60.3185 35.3457 60.5447 39.3864 62.4108L39.6972 65.634C39.8526 67.4435 39.9303 68.9138 39.8526 68.9703C39.6972 69.0268 38.9978 68.8007 38.2208 68.5745C36.8998 68.1221 36.8221 67.8959 36.5113 66.1995C36.4336 65.1816 36.2005 64.1638 36.1228 63.881C36.0451 63.5983 35.268 63.3155 34.491 63.1459C33.7139 63.0328 32.626 62.9197 32.1598 62.9197C31.6159 62.9197 30.7611 62.4673 30.0618 61.7888C28.8962 60.7143 28.8962 60.5447 29.751 57.6042L26.8759 55.512C25.3218 54.3245 23.7677 52.8542 23.3014 52.1757C22.7575 51.2143 22.6798 50.7054 23.146 49.5745C23.5346 48.387 23.4569 48.1042 22.2913 46.7471C21.3588 45.5596 20.6595 45.0507 19.3385 44.7114C18.3283 44.4852 17.3959 44.3155 17.1628 44.4852C16.9296 44.5983 17.0851 44.3721 17.3959 43.9763C17.8621 43.2977 17.8621 43.128 17.1628 42.2798Z" fill="white" fill-opacity="0.6" stroke="#4A4A4A" stroke-width="0.5"/>
<path d="M17.085 44.3722C16.5411 44.9377 16.4634 44.8811 16.5411 43.2412C16.5411 41.6579 16.5411 41.5448 17.1627 42.1103C17.4735 42.4496 17.7844 42.9585 17.7844 43.2412C17.7844 43.524 17.4735 44.0329 17.085 44.3722Z" fill="white" fill-opacity="0.6" stroke="#4A4A4A" stroke-width="0.5"/>
<path d="M18.4837 48.5563C16.6188 45.842 16.308 45.1634 16.7742 44.7676C17.2405 44.3152 17.5513 44.3152 19.1831 44.7111C20.6595 45.1069 21.3588 45.5027 22.2913 46.7468C23.4568 48.1039 23.5345 48.3867 23.146 49.6307C22.6798 50.7051 22.7575 51.214 23.3014 52.2319C23.7677 52.8539 25.3218 54.3242 29.7509 57.6039L29.2847 59.1307C28.8962 60.5444 28.8962 60.714 30.0618 61.7884C30.7611 62.467 31.6159 62.9194 32.1598 62.9194C32.626 62.9194 33.7139 63.0325 34.4909 63.1456C35.268 63.3152 36.045 63.598 36.1227 63.8807C36.2004 64.1634 36.4336 65.1813 36.5113 66.2557C36.8221 67.9521 36.8998 68.1218 38.3762 68.5742C39.2309 68.8003 39.9303 69.2527 39.9303 69.4789C39.9303 69.6486 38.8424 70.1009 37.4437 70.4402C36.1227 70.723 35.0349 71.0622 35.0349 71.2319C35.0349 71.345 36.1227 74.2289 37.4437 77.5652C38.8424 80.9581 40.008 83.7289 40.008 83.7855C40.0857 83.842 41.0182 83.6724 42.106 83.3896C43.1939 83.1069 44.3595 82.8807 44.6703 82.8807C45.0588 82.8807 45.2142 83.7289 45.2142 85.8212C45.2142 88.1396 45.0588 88.7051 44.5926 88.7051C44.2041 88.7051 43.8155 88.9878 43.6601 89.3837C43.5047 89.8361 43.1162 90.0057 41.8729 90.0057C41.0959 90.0057 39.8526 90.1188 39.2309 90.345C38.2985 90.6277 38.0654 90.5712 37.4437 89.6664C36.9775 88.9878 36.5113 88.7051 35.7342 88.7051C35.1126 88.7051 34.5686 88.8182 34.5686 89.0444C34.5686 89.214 34.8018 89.3837 35.1126 89.4402C35.4234 89.4968 35.5011 89.723 35.3457 90.1188C35.1903 90.4015 34.8018 90.5712 34.4909 90.4581C34.1801 90.4015 33.7916 90.0057 33.6362 89.6099C33.4031 89.1575 32.3929 88.5355 30.8388 88.0265C29.5178 87.4611 28.1968 87.1218 27.9637 87.1218C27.7306 87.1218 27.109 87.9134 26.7204 88.9313C26.1765 90.2884 25.6326 90.9105 24.6224 91.3628C23.9231 91.7021 22.5244 91.9283 21.5142 91.9283C20.1932 91.9283 19.9601 92.0414 20.4264 92.2676C20.7372 92.4372 21.6696 92.6069 22.369 92.6069C23.146 92.6069 24.467 92.2676 25.3218 91.8152C26.0988 91.4194 26.9536 90.6843 27.109 90.2884C27.3421 89.8926 27.6529 89.1575 28.3523 87.7438L30.3726 88.4789C31.6936 88.9313 32.5483 89.4968 32.7814 90.1188C33.0923 90.5712 33.7139 91.0801 34.2578 91.1367C34.9572 91.3063 35.4234 91.1367 36.7444 89.8361L36.9775 90.5712C37.2106 91.1932 37.4437 91.2497 38.687 91.1367C39.4641 91.0236 41.0182 90.8539 42.106 90.7408C43.8932 90.5712 44.0486 90.5712 43.8155 91.0801C43.5824 91.3628 43.427 92.2676 43.427 93.0593C43.427 94.1337 43.2716 94.5295 42.8054 94.5295C42.3391 94.5295 42.106 94.85 42.106 95.4908C42.106 96.1317 42.3391 96.4521 42.8054 96.4521C43.2198 96.4521 43.427 96.7726 43.427 97.4134C43.427 98.0543 43.6601 98.3747 44.1263 98.3747C44.4372 98.3747 44.748 98.6009 44.748 98.8837C44.748 99.1099 45.0588 99.3361 45.4473 99.3361C45.9913 99.3361 46.069 99.9015 46.069 105.16H42.106C38.9201 105.16 38.1431 105.047 38.1431 104.652C38.1431 104.425 37.8323 104.199 37.4437 104.199C36.8998 104.199 36.8221 104.765 36.8221 107.083C36.8221 109.458 36.8998 110.024 37.4437 110.024C37.9877 110.024 38.1431 110.363 38.1431 111.437C38.1431 112.512 38.2985 112.907 38.7647 112.907C39.2309 112.907 39.4641 113.228 39.4641 113.869C39.4641 114.51 39.6972 114.83 40.1634 114.83C40.5778 114.83 40.785 115.151 40.785 115.791C40.785 116.432 41.0182 116.753 41.4844 116.753C41.8988 116.753 42.106 117.073 42.106 117.714C42.106 118.355 42.3391 118.675 42.8054 118.675C43.2198 118.675 43.427 119.015 43.427 119.693C43.427 120.334 43.6601 120.655 44.1263 120.655C44.5408 120.655 44.748 120.975 44.748 121.616C44.748 122.257 44.9811 122.577 45.4473 122.577C45.8359 122.577 46.069 122.803 46.069 123.03C46.069 123.312 46.3798 123.538 46.7683 123.538C47.1568 123.538 47.4677 123.821 47.4677 124.104C47.4677 124.387 47.3123 125.009 47.2345 125.405C47.0791 125.8 46.846 126.14 46.5352 126.14C46.3021 126.14 45.525 125.461 44.748 124.669C43.7378 123.482 43.1162 123.199 41.7952 123.03C40.6296 122.916 38.9978 123.086 32.626 124.613L30.1395 123.708C27.9637 122.86 27.4975 122.803 25.3995 123.086C23.146 123.369 22.9906 123.369 22.6798 122.577C22.5244 122.068 21.2811 121.277 19.4162 120.428C16.7742 119.184 15.9195 119.015 12.2673 118.619C9.93616 118.393 7.99354 118.28 7.83813 118.393C7.76042 118.449 6.20632 115 6.43944 114.943C6.75026 114.83 6.43944 114.491 5.8955 114.095C5.35157 113.812 4.88534 113.416 4.88534 113.247C4.88534 113.077 4.57452 112.907 4.2637 112.907C3.87518 112.907 3.56436 112.681 3.56436 112.399C3.56436 112.172 3.25354 111.946 2.86501 111.946C2.08796 111.946 2.08796 111.607 2.39878 107.592C2.6319 104.538 2.86501 103.068 3.33124 102.729C3.64206 102.503 4.186 102.277 4.41911 102.277C4.65222 102.277 5.11845 101.598 5.35157 100.75C5.74009 99.3361 5.97321 99.1664 7.29419 98.9402C7.99354 98.8271 9.0814 98.714 9.54763 98.714C10.0139 98.714 11.1018 98.2051 11.8788 97.6396C12.7336 97.0742 13.3552 96.3956 13.3552 96.2259C13.3552 95.9997 13.1221 95.8301 12.889 95.8301C12.6559 95.8301 12.5005 95.6605 12.6559 95.4908C12.8113 95.3212 12.5782 94.9819 12.1896 94.7557C11.8011 94.5295 11.568 94.5295 11.568 94.6992C11.568 94.8688 11.2572 94.7557 10.8686 94.5295C10.4801 94.2468 10.247 94.1902 10.247 94.3599C10.247 94.5295 10.0139 94.473 9.70304 94.3033C9.39222 94.0771 9.0037 93.964 8.77059 94.1337C8.61518 94.2468 8.45977 94.1902 8.45977 93.964C8.45977 93.7378 8.69288 93.5682 8.92599 93.5682C9.15911 93.5682 9.31452 92.2676 9.31452 90.345C9.31452 87.7438 9.46993 87.0652 10.0139 86.9521C10.4801 86.7825 10.6355 86.2736 10.6355 84.8599C10.6355 83.3331 10.7909 82.8807 11.3349 82.8807C11.8788 82.8807 12.0342 82.4283 12.0342 80.5057C12.0342 78.5265 11.8788 78.0742 11.3349 78.0742C10.8686 78.0742 10.6355 77.7537 10.6355 77.1129C10.6355 76.472 10.4283 76.1515 10.0139 76.1515C9.46993 76.1515 9.31452 75.6992 9.31452 74.2855C9.31452 72.6456 12.0342 70.5533 11.7234 68.8003C11.4126 67.0474 11.4903 66.9343 12.5005 66.4253C13.5106 65.8599 13.5106 65.6902 12.889 61.6188L14.0545 61.5622C15.1424 61.4492 15.4532 61.1664 16.5411 59.0176C17.629 56.8688 20.1155 50.8182 18.4837 48.5563Z" fill="white" fill-opacity="0.6" stroke="#4A4A4A" stroke-width="0.5"/>
<path id="fog belt" d="M7.83803 118.393C7.83803 118.393 7.52721 118.902 7.3718 119.468C7.13869 120.203 7.3718 120.429 9.31442 121.221C11.4125 122.012 11.5679 122.125 11.5679 124.67L15.9971 125.971C19.6492 127.045 20.5817 127.384 20.9702 128.176C21.281 128.685 22.2912 129.42 23.1459 129.816C24.4669 130.325 24.9331 130.777 25.244 131.739C25.4771 132.587 25.4771 133.322 25.1663 133.831C24.7777 134.566 25.0109 134.962 27.1089 137.337C28.8184 139.203 29.7509 139.994 30.3725 139.938C31.0718 139.938 31.4604 140.39 32.1597 141.634C32.8591 142.991 33.3253 143.387 34.4909 143.67C35.3456 143.84 36.3558 144.349 36.822 144.744C37.6768 145.48 37.6768 145.48 36.3558 147.402C35.6564 148.477 35.0348 149.664 35.0348 150.06C35.0348 150.456 35.501 152.378 35.9672 154.358C36.8997 157.807 36.8997 157.92 35.2679 162.387L37.3659 165.102C38.5315 166.515 39.464 167.986 39.464 168.381C39.464 168.721 39.9302 169.343 40.5518 169.739C41.1735 170.134 41.6397 170.643 41.6397 170.869C41.6397 171.096 41.562 171.265 41.3289 171.265C41.1735 171.265 40.785 171.096 40.4741 170.869C40.0079 170.53 39.7748 170.7 39.1532 171.548C38.6869 172.114 37.9876 173.018 37.5991 173.527C37.1328 174.093 36.4335 174.489 36.045 174.489C35.5787 174.432 34.8794 174.771 33.7138 175.959V174.771C33.7138 173.866 33.5584 173.527 33.0145 173.527C32.7036 173.527 32.3928 173.301 32.3928 173.018C32.3928 172.792 32.082 172.566 31.6935 172.566C31.3827 172.566 31.0718 172.34 31.0718 172.057C31.0718 171.831 30.761 171.605 30.3725 171.605C30.0617 171.605 29.7509 171.378 29.7509 171.096C29.7509 170.869 29.44 170.643 29.0515 170.643C28.5853 170.643 28.3522 170.304 28.3522 169.625C28.3522 168.985 28.145 168.664 27.7305 168.664C27.342 168.664 27.0312 168.438 27.0312 168.212C27.0312 167.929 26.7204 167.703 26.4095 167.703C25.9433 167.703 25.7102 167.382 25.7102 166.741C25.7102 166.101 25.503 165.78 25.0886 165.78C24.7 165.78 24.3892 165.554 24.3892 165.328C24.3892 165.045 24.0784 164.819 23.7676 164.819C23.3013 164.819 23.0682 164.498 23.0682 163.858C23.0682 163.217 22.8351 162.896 22.3689 162.896C21.9545 162.896 21.7472 162.576 21.7472 161.935C21.7472 161.294 21.5141 160.974 21.0479 160.974C20.5817 160.974 20.4263 160.578 20.4263 159.503C20.4263 158.429 20.2709 158.033 19.7269 158.033C19.183 158.033 19.1053 157.581 19.1053 155.602C19.1053 153.679 19.183 153.227 19.7269 153.227C20.1932 153.227 20.4263 152.831 20.4263 152.096C20.4263 151.191 20.6594 150.908 21.281 150.795C21.9027 150.682 22.2135 150.343 22.2135 149.664C22.2135 149.023 22.4207 148.703 22.8351 148.703C23.2236 148.703 23.5345 148.477 23.5345 148.194C23.5345 147.968 23.8453 147.741 24.1561 147.741C24.5446 147.741 24.8554 147.515 24.8554 147.233C24.8554 147.006 25.1663 146.78 25.4771 146.78C25.9433 146.78 26.1764 146.441 26.1764 144.801H23.5345C21.4364 144.801 20.8925 144.744 20.8925 144.349C20.8925 144.066 20.5817 143.84 20.1932 143.84C19.8046 143.84 19.4938 143.614 19.4938 143.387C19.4938 143.105 19.183 142.878 18.8722 142.878C18.3282 142.878 18.1728 142.483 18.1728 140.956C18.1728 139.429 18.0951 139.033 17.5512 139.033C17.1627 139.033 16.8518 138.807 16.8518 138.524C16.8518 138.298 16.541 138.072 16.2302 138.072C15.764 138.072 15.5309 137.751 15.5309 137.111C15.5309 136.432 15.3236 136.093 14.9092 136.093C14.5207 136.093 14.2099 135.866 14.2099 135.64C14.2099 135.358 13.8991 135.131 13.5105 135.131C13.1997 135.131 12.8889 134.905 12.8889 134.679C12.8889 134.396 12.5781 134.17 12.1895 134.17C11.8787 134.17 11.5679 133.944 11.5679 133.718C11.5679 133.435 11.2571 133.209 10.8685 133.209C10.5577 133.209 10.2469 132.983 10.2469 132.756C10.2469 132.474 9.93606 132.247 9.54754 132.247C9.23672 132.247 8.9259 132.021 8.9259 131.739C8.9259 131.512 8.61508 131.286 8.22655 131.286C7.91573 131.286 7.60491 131.06 7.60491 130.777C7.60491 130.551 7.2941 130.325 6.90557 130.325C6.43934 130.325 6.20623 130.004 6.20623 129.364C6.20623 128.723 5.99901 128.402 5.58459 128.402C5.19606 128.402 4.88524 128.176 4.88524 127.893C4.88524 127.611 4.57442 127.384 4.2636 127.384C3.79737 127.384 3.56426 127.064 3.56426 126.423C3.56426 125.782 3.35705 125.462 2.94262 125.462C2.39869 125.462 2.24328 125.066 2.24328 124.048C2.24328 122.974 2.08787 122.578 1.62164 122.578C1.07771 122.578 1 122.069 1 120.599C1 119.072 1.07771 118.676 1.62164 118.676C2.08787 118.676 2.24328 118.337 2.24328 117.262C2.24328 116.188 2.39869 115.792 2.94262 115.792C3.33114 115.792 3.56426 115.509 3.56426 115C3.56426 114.209 3.64196 114.209 4.80754 114.661C5.50688 114.887 6.20623 115 6.43934 114.944C6.59475 114.887 6.43934 115.622 6.75016 116.414C6.90557 116.753 6.59475 117.262 7.21639 117.432C7.83803 117.658 7.83803 118.393 7.83803 118.393Z" fill="white" fill-opacity="0.6" stroke="#4A4A4A" stroke-width="0.5"/>
<path d="M18.1729 49.5748C17.2404 48.3308 16.4633 46.9736 16.4633 46.6343C16.4633 46.2951 17.4735 47.3129 18.6391 49.0093C20.504 51.4409 20.8925 52.2326 20.8925 53.6462C20.8925 55.2861 20.7371 55.3427 19.183 55.9647C17.7843 56.5302 17.3958 56.9826 16.4633 58.8486C15.4532 60.7713 15.1424 61.1671 12.6558 61.6195L12.9666 63.5986C13.2774 65.5212 13.1997 65.7474 12.2673 66.3129C11.3348 66.8784 11.2571 67.1611 11.4125 68.7445C11.5679 70.3278 11.4902 70.554 10.48 71.2891C9.85838 71.7415 9.31445 71.9677 9.31445 71.798C9.31445 71.5718 9.62527 71.176 10.0138 70.8367C10.48 70.3843 10.6354 69.4796 10.6354 68.2355C10.6354 66.6522 10.7908 66.2564 11.5679 65.9171C12.345 65.5213 12.4227 65.2951 11.801 60.9974H13.1997C14.5984 60.9974 14.6761 60.9409 15.8417 58.5093C16.9296 56.304 17.2404 55.9647 20.6594 54.7772L20.2709 53.3635C20.0378 52.5153 19.1053 50.8189 18.1729 49.5748Z" fill="white" fill-opacity="0.6" stroke="#4A4A4A" stroke-width="0.5"/>
<path d="M15.2977 50.9886C15.8416 50.9886 16.0747 50.4796 16.2301 49.2921L16.541 47.5957L17.2403 48.557C17.7065 49.0659 18.4836 50.1403 19.0275 50.8755C19.4937 51.6671 19.96 52.8546 19.96 53.5897C19.96 54.6642 19.8046 54.8903 18.4836 55.3427C17.7842 55.682 16.9295 56.0778 16.7741 56.2475C16.6187 56.4737 15.997 57.5481 15.5308 58.6225C14.9092 60.1493 14.4429 60.7148 13.6659 60.8278C13.1219 60.9409 12.578 60.9409 12.4226 60.8278C12.3449 60.7148 12.5003 60.6582 12.7334 60.6582C13.1219 60.6582 13.3551 60.0362 13.3551 58.7356C13.3551 57.2088 13.4328 56.813 13.9767 56.813C14.5206 56.813 14.676 56.2475 14.676 53.8725C14.676 51.554 14.7537 50.9886 15.2977 50.9886Z" fill="white" fill-opacity="0.6" stroke="#4A4A4A" stroke-width="0.5"/>
<path d="M34.9571 71.2324C34.8794 71.1193 35.7341 70.8365 36.822 70.5538C37.9099 70.2711 39.0755 70.0449 39.3086 70.0449C39.6971 69.9883 39.9302 70.5538 39.9302 71.7978C39.9302 73.155 40.0079 73.5508 40.5518 73.5508C41.0958 73.5508 41.2512 74.0598 41.2512 75.9824C41.2512 77.905 41.3289 78.4139 41.8728 78.4139C42.3391 78.4139 42.5722 78.7344 42.5722 79.3752C42.5722 80.0161 42.7794 80.3365 43.1938 80.3365C43.66 80.3365 43.8932 80.657 43.8932 81.2978C43.8932 81.9387 44.1263 82.2592 44.5925 82.2592C44.9033 82.2592 45.2141 82.3722 45.2141 82.5419C45.2141 82.655 44.0486 82.9943 42.6499 83.277C41.2512 83.5597 40.0856 83.7859 40.0079 83.7859C40.0079 83.7294 38.8423 80.9586 37.4437 77.5657C36.1227 74.2294 34.9571 71.3455 34.9571 71.2324Z" fill="white" fill-opacity="0.6" stroke="#4A4A4A" stroke-width="0.5"/>
<path d="M24.6226 91.3631C25.6327 90.9108 26.1767 90.2887 26.7206 88.9316C27.1868 87.9137 27.7308 87.1221 27.9639 87.1221C28.197 87.1221 29.518 87.4614 30.839 88.0268C32.3931 88.5358 33.4032 89.1578 33.6363 89.6102C33.7918 90.006 34.1803 90.4018 34.4911 90.4584C34.8019 90.5715 35.1904 90.4018 35.3459 90.1191C35.5013 89.7233 35.4236 89.4971 35.1127 89.4405C34.8019 89.384 34.5688 89.2143 34.5688 89.0447C34.5688 88.8185 35.1127 88.7054 35.7344 88.7054C36.4337 88.7054 36.9777 88.9881 37.4439 89.6102C38.0655 90.4584 38.1432 90.4584 40.4744 90.2887C41.7177 90.1756 43.0386 90.006 43.3495 89.8929C43.6603 89.7798 43.8934 89.8929 43.8934 90.1756C43.8934 90.5149 43.2718 90.6846 41.7954 90.7977C40.6298 90.8542 39.1534 91.0239 38.4541 91.0804C37.4439 91.25 37.2108 91.137 36.7445 89.8364L35.9675 90.628C35.4236 91.1369 34.9573 91.3066 34.258 91.1369C33.7141 91.0804 33.0924 90.5715 32.7816 90.1191C32.5485 89.4971 31.6937 88.9316 28.3524 87.7441L27.8862 88.6489C27.6531 89.1578 27.3422 89.8929 27.1091 90.2887C26.9537 90.6846 26.099 91.4197 25.3219 91.8155C24.4672 92.2679 23.1462 92.6072 22.3691 92.6072C21.6698 92.6072 20.7373 92.4375 20.4265 92.2679C19.9603 92.0417 20.1934 91.9286 21.5144 91.9286C22.5245 91.9286 23.9232 91.7024 24.6226 91.3631Z" fill="white" fill-opacity="0.6" stroke="#4A4A4A" stroke-width="0.5"/>
<path d="M8.22682 98.3747C8.77076 98.3747 9.70322 97.9223 10.6357 97.1307C11.4905 96.4521 12.5006 95.8301 12.7337 95.8301C13.0446 95.8301 13.3554 95.9997 13.3554 96.1694C13.3554 96.3956 12.656 97.0741 11.879 97.6962C11.1019 98.2616 10.014 98.714 9.54781 98.714C9.08158 98.714 7.99371 98.8271 7.29436 98.9402C5.97338 99.1664 5.74027 99.336 5.35174 100.693C5.11863 101.598 4.7301 102.277 4.49699 102.277C4.18617 102.277 4.03076 101.994 4.03076 101.598C4.03076 101.259 4.34158 100.41 4.6524 99.6753C5.19633 98.714 5.58486 98.3747 6.36191 98.3182C6.90584 98.3182 7.76059 98.3182 8.22682 98.3747Z" fill="white" fill-opacity="0.6" stroke="#4A4A4A" stroke-width="0.5"/>
<path d="M8.07113 120.711C7.29408 120.259 7.13867 119.976 7.37179 119.297V119.241C7.6049 118.619 7.91572 118.393 8.69277 118.393C9.31441 118.393 11.3348 118.562 13.1997 118.732C15.9971 119.015 17.1626 119.354 19.4938 120.428C21.281 121.277 22.5243 122.068 22.6797 122.577C22.9905 123.369 23.1459 123.369 25.3994 123.086C27.4974 122.803 27.9636 122.86 32.6259 124.613L36.1226 123.708C39.2308 122.973 39.9302 122.916 41.6397 123.199C42.8053 123.369 43.7377 123.652 43.8931 123.821L45.0587 125.235C45.7581 126.027 46.302 126.366 46.7682 126.253C47.1567 126.196 47.5453 125.744 47.623 125.235C47.7784 124.443 47.7784 124.443 47.8561 125.404C47.8561 126.14 47.623 126.535 47.0013 126.762C46.5351 126.931 46.0689 127.044 45.9912 126.988C45.9135 126.931 45.1364 126.253 44.2817 125.404C43.3492 124.387 42.339 123.821 41.562 123.708C40.8626 123.595 38.6092 123.934 32.3151 125.291L30.0617 124.387C28.119 123.595 27.4197 123.482 25.9433 123.652C25.0108 123.821 23.7676 123.991 23.3013 124.047C22.602 124.16 22.3689 124.047 22.1358 123.312C21.9026 122.69 21.0479 122.012 19.0276 121.05C16.7741 119.976 15.5308 119.58 12.8889 119.297C11.1017 119.071 9.23671 119.015 8.77048 119.128C8.38195 119.241 7.99343 119.467 7.99343 119.693C7.99343 119.806 8.92589 120.315 10.0138 120.711C11.801 121.39 12.0341 121.559 12.0341 122.577C11.9564 123.199 12.1895 123.878 12.5004 124.047C12.8112 124.274 14.9092 124.896 17.0849 125.518C20.2708 126.366 21.0479 126.762 21.5141 127.497C21.7472 127.949 22.7574 128.741 23.7676 129.137C25.0885 129.759 25.6325 130.268 26.021 131.342C26.4095 132.303 26.4872 132.982 26.1764 133.604C25.7879 134.396 26.021 134.791 27.8082 136.94C29.44 138.75 30.2171 139.315 31.0718 139.428C31.9266 139.485 32.3151 139.881 33.0144 141.238C33.7138 142.652 34.18 142.991 35.1902 143.16C35.9672 143.274 36.8997 143.839 38.6092 145.479L35.7341 150.116L36.822 154.018C37.8322 157.806 37.8322 157.919 36.2781 162.047L38.2984 164.818C39.3863 166.345 40.3187 167.815 40.3187 168.098C40.3187 168.437 40.9404 169.059 41.7174 169.568C42.4944 170.077 43.8154 171.152 46.0689 173.527H50.1872C54.0725 173.527 54.3833 173.527 55.4712 174.375C56.4813 175.11 56.7145 175.619 56.7145 176.75C56.7922 177.881 57.103 178.503 58.2685 179.634C59.1233 180.482 60.0558 181.556 60.2889 182.065C60.5997 182.574 61.9984 185.571 63.3971 188.681C65.8059 194.11 66.039 194.393 68.681 196.654C71.323 198.916 71.323 199.086 71.7892 201.461C71.9446 203.101 72.5662 204.797 73.421 206.098C74.1203 207.229 75.1305 209.434 76.6846 213.675L79.5597 214.976C81.1138 215.654 82.3571 216.333 82.4348 216.503C82.4348 216.616 82.0462 216.616 81.6577 216.559C81.2692 216.446 79.7928 215.824 78.4718 215.146C76.063 213.902 75.9853 213.902 74.9751 211.074C74.3535 209.321 73.4987 207.794 72.7217 207.116C71.9964 206.4 71.2453 206.06 70.4682 206.098C69.8466 206.098 68.681 206.437 67.8262 206.777C66.583 207.342 65.8836 207.399 64.4849 207.285C62.7754 207.116 62.6977 207.116 59.201 210.565L55.6266 210.622C53.2954 210.622 51.042 210.396 49.0994 209.943C46.6128 209.434 45.7581 209.038 43.9708 207.681C42.1836 206.324 41.4843 205.985 38.92 205.532C37.2105 205.193 35.8895 204.854 35.8895 204.684C35.8895 204.571 36.7443 204.571 37.7545 204.684C38.8423 204.797 39.8525 205.024 40.1633 205.137C40.3964 205.306 40.9404 205.419 41.3289 205.419C41.7951 205.419 43.1161 206.211 44.2817 207.116C45.9912 208.529 46.9236 208.925 49.0217 209.378C50.5758 209.717 53.0623 209.943 58.7348 209.943L60.522 208.19C62.2315 206.494 62.3092 206.437 64.0187 206.663C65.4174 206.777 66.1944 206.663 67.36 206.154C68.2148 205.759 69.4581 205.419 70.0797 205.419C71.2453 205.419 71.323 205.363 71.323 204.062C71.323 203.327 71.1676 201.913 71.0121 200.952C70.7013 199.425 70.3128 198.916 67.9817 196.937C65.3397 194.675 65.262 194.562 62.5423 188.512L62.4646 188.342C60.3666 183.535 59.3564 181.669 58.0354 180.312C56.6367 178.842 56.3259 178.277 56.3259 177.089C56.3259 175.902 56.0928 175.449 53.6063 173.696L45.9135 174.149L44.4371 172.678C43.0384 171.321 42.9607 171.265 42.1059 171.83C41.4066 172.282 41.0958 172.282 40.6295 172C40.241 171.66 39.8525 171.943 38.92 173.187C38.143 174.149 37.2882 174.884 36.6666 174.997C36.1226 175.11 35.3456 175.506 34.9571 175.902C34.5685 176.241 34.1023 176.467 33.9469 176.354C33.8692 176.184 34.0246 175.732 34.4908 175.279C34.8794 174.827 35.6564 174.431 36.1226 174.375C36.7443 174.375 37.4436 173.696 38.2207 172.622C39.3085 171.208 39.6194 170.982 40.4741 171.152C41.0958 171.265 41.562 171.152 41.7174 170.869C41.8728 170.643 41.4843 170.19 40.7849 169.738C40.0079 169.342 39.464 168.72 39.464 168.381C39.464 167.985 38.5315 166.515 35.2679 162.387L36.1226 160.125C36.8997 157.919 36.8997 157.806 35.9672 154.357C35.501 152.378 35.0348 150.455 35.0348 150.059C35.0348 149.663 35.6564 148.476 36.3558 147.402C37.6767 145.479 37.6767 145.479 36.822 144.744C36.3558 144.348 35.3456 143.839 34.4908 143.669C33.3253 143.387 32.859 142.991 32.1597 141.634C31.4604 140.39 31.0718 139.937 30.3725 139.937C29.7508 139.994 28.8184 139.202 27.1089 137.336C25.0108 134.961 24.7777 134.565 25.1663 133.83C25.4771 133.321 25.4771 132.586 25.244 131.738C24.9331 130.777 24.4669 130.324 23.1459 129.815C22.2912 129.419 21.281 128.684 20.9702 128.175C20.5817 127.384 19.6492 127.044 11.5679 124.669V123.369C11.5679 122.294 11.4125 122.012 10.3246 121.672C9.70294 121.446 8.69277 121.05 8.07113 120.711Z" fill="white" fill-opacity="0.6" stroke="#4A4A4A" stroke-width="0.5"/>
<path id="tallest tree" d="M7.91602 119.75C7.91602 119.58 7.99373 119.354 8.22684 119.241C8.45996 119.128 9.00389 119.015 9.54783 119.015C10.0141 119.015 11.7236 119.184 13.3554 119.354C15.5311 119.58 16.9298 120.033 19.0279 121.05C21.0482 122.012 21.9029 122.69 22.1361 123.312C22.3692 124.047 22.6023 124.16 23.3016 124.047C23.7679 123.991 25.0111 123.821 25.9436 123.652C27.42 123.482 28.1193 123.595 32.3154 125.291L36.0452 124.5C38.3764 123.934 40.2413 123.708 41.2515 123.821C42.4947 123.934 43.1164 124.33 44.2042 125.518C44.9813 126.366 45.9138 127.101 46.2246 127.101C46.5354 127.101 47.157 126.931 47.5456 126.705C47.9341 126.479 48.4003 125.8 48.6334 124.33L48.7111 125.405C48.7629 126.083 48.9961 126.422 49.4105 126.422C49.8767 126.422 50.1098 126.743 50.1098 127.384C50.1098 128.062 50.317 128.402 50.7315 128.402C51.3531 128.402 51.4308 129.137 51.4308 133.208C51.4308 137.336 51.3531 138.071 50.7315 138.071C50.317 138.071 50.1098 138.392 50.1098 139.033C50.1098 139.673 49.8767 139.994 49.4105 139.994C49.0997 139.994 48.7111 140.333 48.5557 140.729C48.4003 141.125 48.3226 142.199 48.3226 143.16C48.3226 144.461 48.478 144.8 49.022 144.8C49.4882 144.8 49.6436 145.309 49.6436 147.232C49.6436 149.155 49.4882 149.663 49.022 149.663C48.5557 149.663 48.3226 149.984 48.3226 150.625C48.3226 151.266 48.0895 151.586 47.6233 151.586C47.3124 151.586 47.0016 151.812 47.0016 152.095C47.0016 152.321 46.6908 152.547 46.3023 152.547C45.8361 152.547 45.6806 152.943 45.6806 154.018C45.6806 155.092 45.8361 155.488 46.3023 155.488C46.7685 155.488 47.0016 155.808 47.0016 156.449C47.0016 157.09 47.2088 157.41 47.6233 157.41C48.0895 157.41 48.3226 157.731 48.3226 158.372C48.3226 159.013 48.5557 159.333 49.022 159.333C49.3328 159.333 49.6436 159.559 49.6436 159.842C49.6436 160.068 49.9544 160.294 50.3429 160.294C50.7574 160.294 50.9646 160.615 50.9646 161.256C50.9646 161.897 51.1977 162.217 51.6639 162.217C51.9747 162.217 52.2856 162.443 52.2856 162.726C52.2856 162.952 52.5964 163.178 52.9849 163.178C53.2957 163.178 53.6065 163.405 53.6065 163.687C53.6065 163.97 53.9174 164.196 54.3059 164.196C54.6944 164.196 55.0052 164.422 55.0052 164.649C55.0052 164.931 55.3161 165.158 55.6269 165.158C56.0154 165.158 56.3262 165.384 56.3262 165.61C56.3262 165.893 56.637 166.119 56.9479 166.119C57.3364 166.119 57.6472 166.345 57.6472 166.571C57.6472 166.854 57.958 167.08 58.2688 167.08C58.8128 167.08 58.9682 167.646 58.9682 170.473C58.9682 173.244 59.1236 173.866 59.5898 173.866C59.9783 173.866 60.2892 174.092 60.2892 174.318C60.2892 174.601 60.6 174.827 60.9108 174.827C61.4547 174.827 61.6101 175.223 61.6101 176.75C61.6101 178.277 61.4547 178.672 60.9108 178.672C60.4446 178.672 60.2892 179.012 60.2892 181.443L58.7351 179.916C57.4918 178.672 57.181 178.05 57.181 176.863C57.181 175.506 56.9479 175.11 54.3059 173.187L46.3023 173.583L44.6705 171.83C43.738 170.925 42.417 169.794 41.64 169.399C40.9406 169.003 40.319 168.437 40.319 168.155C40.319 167.815 39.4643 166.345 36.2006 162.047L37.0554 159.955C37.8324 157.919 37.8324 157.863 35.7344 150.116L38.6095 145.479L37.5216 144.461C36.9 143.839 35.9675 143.274 35.1905 143.16C34.1803 142.991 33.7141 142.652 33.0147 141.238C32.3154 139.881 31.9269 139.485 31.0721 139.428C30.2174 139.315 29.4403 138.75 27.8862 136.94C26.0213 134.791 25.7882 134.396 26.1767 133.66C26.4875 132.982 26.4098 132.36 25.9436 131.285C25.4774 130.324 24.8557 129.702 23.6124 129.137C22.68 128.741 21.7475 127.949 21.5144 127.497C21.0482 126.762 20.2711 126.366 17.0852 125.518C14.9095 124.896 12.8115 124.274 12.5006 124.047C12.1898 123.878 11.9567 123.199 12.0344 122.577C12.0344 121.559 11.8013 121.39 10.0141 120.711C8.92619 120.315 7.99373 119.863 7.91602 119.75Z" fill="white" fill-opacity="0.6" stroke="#4A4A4A" stroke-width="0.5"/>
<path id="two ways" d="M40.6294 172.339C41.2511 172.678 41.4842 172.565 41.9504 172C42.3389 171.604 42.7275 171.265 42.8829 171.265C43.0383 171.265 43.6599 171.887 45.6802 174.149H49.7986C53.4507 174.149 53.9947 174.262 54.8494 174.884C55.6265 175.449 55.8596 175.958 55.8596 177.089C55.8596 178.277 56.1704 178.785 57.6468 180.256C59.0455 181.556 59.9002 183.14 62.2314 188.285C64.9511 194.506 65.1065 194.732 67.6707 196.824C69.0694 198.068 70.3904 199.312 70.5458 199.595C70.6235 199.878 70.9343 201.348 71.1675 202.875C71.4783 205.476 71.4006 205.589 70.6235 205.363C70.0537 205.174 69.173 205.363 67.9816 205.928C66.4275 206.55 65.6504 206.72 64.174 206.55C62.3091 206.381 62.3091 206.437 58.8901 209.774L58.7347 209.943H55.6265C53.917 209.943 51.1973 209.717 49.6432 209.434C47.0789 208.925 46.3796 208.586 44.7478 207.229C43.6599 206.381 42.1058 205.476 41.2511 205.25C40.3963 204.967 39.153 204.797 38.4537 204.797C37.7543 204.797 36.8996 204.741 36.5888 204.628C36.1225 204.571 35.8894 204.006 35.8894 203.044C35.8894 201.97 36.1225 201.574 36.5888 201.574C37.0032 201.574 37.2104 201.254 37.2104 200.613C37.2104 200.104 37.8321 198.747 38.6091 197.616C39.7747 195.863 39.9301 195.467 39.5416 194.619C39.2307 194.11 38.9976 192.187 38.9976 190.378C38.9976 187.663 38.9199 187.041 38.376 187.041C37.8321 187.041 37.6766 186.646 37.6766 185.119C37.6766 183.818 37.5212 183.196 37.1327 183.196C36.8219 183.196 36.278 182.631 35.8117 182.009C35.4232 181.274 35.1124 179.803 35.0347 178.503C34.957 177.315 34.957 176.071 34.957 175.902C35.0347 175.675 35.6563 175.28 36.3557 175.11C37.2363 174.921 38.0393 174.337 38.7645 173.357C39.7747 172.113 40.0078 172 40.6294 172.339Z" fill="white" fill-opacity="0.6" stroke="#4A4A4A" stroke-width="0.5"/>
<path d="M55.5489 174.432C54.8495 173.979 53.6839 173.527 52.9846 173.414L51.6636 173.301L52.9846 173.244C53.9171 173.188 54.6941 173.47 55.782 174.206C57.103 175.223 57.1807 175.45 56.9475 178.503L56.7921 176.92C56.7921 175.619 56.4813 175.11 55.5489 174.432Z" fill="white" fill-opacity="0.6" stroke="#4A4A4A" stroke-width="0.5"/>
<path d="M54.8497 174.884C54.0727 174.375 53.2179 174.148 50.9645 174.092L48.0894 173.979L50.9645 173.922C53.6064 173.866 53.9173 173.922 55.0828 174.714C55.9376 175.392 56.2484 176.014 56.4038 177.315C56.4038 178.22 56.4038 178.898 56.1707 178.785C56.0153 178.729 55.8599 177.994 55.8599 177.145C55.8599 175.958 55.6268 175.449 54.8497 174.884Z" fill="white" fill-opacity="0.6" stroke="#4A4A4A" stroke-width="0.5"/>
<path d="M63.6305 188.682C62.3095 185.572 61.2216 182.857 61.2216 182.688C61.2216 182.575 61.377 182.631 61.4547 182.97C61.5324 183.253 61.921 183.536 62.3095 183.536C62.7239 183.536 62.9311 183.856 62.9311 184.497C62.9311 185.176 63.1643 185.459 63.7082 185.459C64.3298 185.459 64.4852 185.628 64.1744 186.42C63.9413 187.155 63.9413 187.381 64.4852 187.381C64.9515 187.381 65.1846 187.777 65.1846 188.851C65.1846 189.926 65.34 190.265 65.8062 190.265C66.2724 190.265 66.5056 190.604 66.5056 191.283C66.5056 191.924 66.7128 192.244 67.1272 192.244C67.5157 192.244 67.8265 192.47 67.8265 192.697C67.8265 192.979 68.1374 193.206 68.4482 193.206C68.8367 193.206 69.1475 193.432 69.1475 193.658C69.1475 193.997 69.5879 194.167 70.4685 194.167C71.3492 194.167 71.7895 194.318 71.7895 194.619C71.7895 194.902 72.1003 195.128 72.4888 195.128C72.7997 195.128 73.1105 195.354 73.1105 195.637C73.1105 195.863 73.4213 196.089 73.8098 196.089C74.1206 196.089 74.4315 196.316 74.4315 196.598C74.4315 196.825 74.7423 197.051 75.1308 197.051C75.4416 197.051 75.7524 197.277 75.7524 197.56C75.7524 197.786 76.0633 198.012 76.4518 198.012C76.9957 198.012 77.1511 198.521 77.1511 200.444C77.1511 202.366 76.9957 202.875 76.4518 202.875C75.9856 202.875 75.7524 203.271 75.7524 205.759H77.7728C79.2492 205.759 79.7931 205.872 79.7931 206.268C79.7931 206.494 80.1039 206.72 80.4147 206.72C80.9587 206.72 81.1141 207.116 81.1141 208.191C81.1141 209.265 80.9587 209.661 80.4147 209.661C80.1039 209.661 79.7931 209.887 79.7931 210.113C79.7931 210.396 79.4823 210.622 79.0938 210.622C78.7829 210.622 78.4721 210.848 78.4721 211.075C78.4721 211.357 78.7829 211.584 79.0938 211.584C79.4823 211.584 79.7931 211.81 79.7931 212.036C79.7931 212.375 80.2334 212.545 81.1141 212.545C81.9947 212.545 82.4351 212.696 82.4351 212.997C82.4351 213.337 82.9013 213.506 85.077 213.506V215.429C85.077 216.956 84.9216 217.351 84.4554 217.351C84.0669 217.351 83.6784 217.578 83.5229 217.86C83.4452 218.143 83.4452 218.595 83.5229 218.822C83.6784 219.104 83.5229 219.331 83.1344 219.331C82.5905 219.331 82.4351 219.726 82.4351 220.744C82.4351 221.819 82.2797 222.214 81.7357 222.214C81.2695 222.214 81.1141 222.61 81.1141 224.137C81.1141 225.664 81.2695 226.06 81.7357 226.06C82.2797 226.06 82.4351 226.512 82.4351 228.039C82.4351 229.679 82.5905 229.962 83.2121 229.962C83.8338 229.962 83.9115 230.131 83.6006 230.923C83.4452 231.658 83.4452 231.884 83.9892 231.884C84.4554 231.884 84.6108 232.28 84.6108 233.354C84.6108 234.429 84.8439 234.768 85.3101 234.768C85.7764 234.768 86.0095 235.164 86.0095 236.238C86.0095 237.313 86.1649 237.709 86.6311 237.709C87.1751 237.709 87.3305 238.161 87.3305 240.14C87.3305 242.063 87.1751 242.515 86.6311 242.515C86.2426 242.515 85.9318 242.911 85.7764 244.381L81.5803 243.476C77.6951 242.572 77.1511 242.345 75.2862 240.819C74.0429 239.857 72.722 238.274 72.0226 237.03C70.9347 235.107 70.3908 234.655 64.5629 230.866C60.1338 227.982 58.0357 226.399 56.4816 224.081L53.218 224.25C49.9544 224.42 49.799 224.42 44.9036 222.78C41.3292 221.592 39.9305 220.914 39.9305 220.518C39.9305 220.235 39.6197 219.953 39.2311 219.953C38.7649 219.953 38.6095 219.613 38.6095 218.652C38.6095 217.973 38.2987 217.125 37.9101 216.899C37.5216 216.616 37.2108 215.825 37.2108 214.807C37.2108 213.845 37.0554 213.167 36.7446 213.11C36.4338 213.054 36.1229 211.697 35.7344 205.081L37.4439 205.307C38.4541 205.42 39.3865 205.646 39.6974 205.816C39.9305 205.985 40.4744 206.098 40.8629 206.098C41.3292 206.098 42.6502 206.89 43.8157 207.795C45.6029 209.152 46.5354 209.548 48.5557 210C50.2652 210.396 52.6741 210.622 59.4344 210.622L61.1439 208.813C62.9311 207.06 62.9311 207.06 64.5629 207.342C66.0393 207.625 66.5056 207.569 68.1374 206.89C69.2252 206.438 70.3131 206.098 70.5462 206.098C70.857 206.098 71.6341 206.494 72.3334 206.947C73.1882 207.625 73.9652 208.813 74.7423 211.018C75.9856 214.072 76.0633 214.241 78.0059 215.033C79.0938 215.598 80.4924 216.22 81.1918 216.503C81.9688 216.842 82.5128 216.956 82.6682 216.729C82.8236 216.56 81.5803 215.768 76.918 213.563L76.0633 211.188C75.597 209.887 74.5869 207.738 73.8098 206.438C72.8256 204.817 72.2039 203.158 71.9449 201.462C71.5564 198.917 71.5564 198.86 68.9144 196.598C66.1947 194.393 66.117 194.167 63.6305 188.682Z" fill="white" fill-opacity="0.6" stroke="#4A4A4A" stroke-width="0.5"/>
<path d="M38.1428 196.655C38.6868 196.316 38.9976 195.694 39.0753 195.071V193.997L39.5415 194.902C39.8524 195.637 39.6192 196.146 37.2881 199.482L37.2104 198.351C37.2104 197.616 37.5212 197.051 38.1428 196.655Z" fill="white" fill-opacity="0.6" stroke="#4A4A4A" stroke-width="0.5"/>
<path d="M44.6702 223.402C42.0282 222.497 39.9302 221.649 39.9302 221.479C39.9302 221.366 40.5519 221.423 41.3289 221.706C42.1059 221.932 44.3594 222.723 46.302 223.345C49.721 224.476 50.0319 224.533 56.326 224.137L57.103 225.381C57.621 226.211 60.004 228.02 64.2518 230.81C70.3128 234.768 70.7014 235.107 71.9446 237.256C72.7994 238.84 73.8096 239.914 75.4414 241.101C77.4617 242.572 78.3164 242.911 81.8909 243.703C84.1443 244.212 86.0092 244.721 86.0092 244.834C86.0092 245.003 85.543 245.003 84.9991 244.89C84.4551 244.834 82.3571 244.325 80.3368 243.872C76.9177 243.137 76.3738 242.854 74.5089 241.215C73.3433 240.253 71.7892 238.5 71.0899 237.313C69.9243 235.39 69.225 234.825 63.6302 231.206C59.8227 228.718 57.1807 226.738 55.7043 224.646L52.5961 224.816C49.4879 225.042 49.4102 225.042 44.6702 223.402Z" fill="white" fill-opacity="0.6" stroke="#4A4A4A" stroke-width="0.5"/>
<path id="mount peak" d="M40.5518 222.836C40.241 222.836 39.9302 222.666 39.8525 222.384C39.8525 222.101 41.2512 222.44 44.5925 223.571C49.3325 225.154 49.4879 225.154 56.0151 224.872L56.7144 226.059C57.1807 226.964 59.2787 228.547 63.6302 231.318C69.458 235.107 69.9243 235.446 71.0121 237.538C71.9446 239.178 72.9548 240.253 74.742 241.553C76.9177 243.193 77.5394 243.419 85.7761 245.285L85.8538 247.151C85.9315 248.622 85.8538 248.961 85.3099 248.961C84.9213 248.961 84.6105 249.187 84.6105 249.47C84.6105 249.696 84.9213 249.922 85.3099 249.922C85.8538 249.922 86.0092 250.375 86.0092 251.901C86.0092 253.372 86.0869 253.824 86.6308 253.824C87.0971 253.824 87.3302 254.144 87.3302 254.785C87.3302 255.426 87.5374 255.747 87.9518 255.747C88.3403 255.747 88.6512 255.973 88.6512 256.256C88.6512 256.482 88.962 256.708 89.2728 256.708C89.6613 256.708 89.9721 256.934 89.9721 257.217C89.9721 257.443 90.283 257.669 90.5938 257.669C91.06 257.669 91.2931 257.99 91.2931 258.631C91.2931 259.309 91.5262 259.648 91.9925 259.648C92.3033 259.648 92.6141 259.875 92.6141 260.101C92.6141 260.384 92.9249 260.61 93.3135 260.61C93.6243 260.61 94.0128 260.892 94.1682 261.232C94.3236 261.646 94.7639 261.854 95.4892 261.854C96.1885 261.854 96.5771 262.08 96.5771 262.363C96.5771 262.702 97.0433 262.872 97.9758 262.872C98.8564 262.872 99.2967 262.702 99.2967 262.363C99.2967 262.08 99.6076 261.854 99.9184 261.854C100.307 261.854 100.618 261.628 100.618 261.401C100.618 261.119 100.928 260.892 101.239 260.892C101.628 260.892 101.938 260.666 101.938 260.44C101.938 260.157 102.249 259.931 102.56 259.931C103.026 259.931 103.259 259.611 103.259 258.97C103.259 258.329 103.467 258.009 103.881 258.009C104.27 258.009 104.58 257.782 104.58 257.5C104.58 257.273 104.891 257.047 105.28 257.047C105.591 257.047 105.901 256.821 105.901 256.538C105.901 256.199 106.445 256.086 107.922 256.086C109.398 256.086 109.864 256.199 109.864 256.538C109.864 256.821 110.175 257.047 110.564 257.047C110.952 257.047 111.263 257.273 111.263 257.5C111.263 257.782 111.574 258.009 111.885 258.009C112.273 258.009 112.584 258.235 112.584 258.517C112.584 258.744 112.895 258.97 113.206 258.97C113.594 258.97 113.905 259.196 113.905 259.479C113.905 259.705 114.216 259.931 114.527 259.931C114.915 259.931 115.226 260.157 115.226 260.44C115.226 260.836 116.003 260.892 119.888 260.892C123.696 260.892 124.551 261.006 124.551 261.401C124.551 261.628 124.861 261.854 125.172 261.854C125.561 261.854 125.872 262.193 125.872 262.532C125.872 262.872 125.716 263.154 125.561 263.154C125.328 263.154 124.395 262.985 123.54 262.872C122.375 262.645 121.442 262.645 120.432 262.928C119.033 263.267 118.878 263.211 114.216 260.497C110.253 258.178 109.165 257.669 107.922 257.669C106.834 257.669 106.368 257.839 106.368 258.178C106.368 258.517 106.678 258.631 107.611 258.517C108.543 258.404 109.709 258.913 113.827 261.288C118.645 264.059 118.8 264.116 120.199 263.776C121.365 263.437 122.064 263.437 123.618 263.833C124.706 264.059 125.949 264.512 126.415 264.907C126.804 265.303 127.115 265.869 127.193 266.151C127.193 266.434 127.426 266.717 127.581 266.717C127.814 266.717 128.047 267.339 128.047 268.187C128.047 269.205 127.892 269.601 127.426 269.601C127.037 269.601 126.726 269.827 126.726 270.11C126.726 270.449 126.182 270.562 124.706 270.562C123.307 270.562 122.763 270.732 122.763 271.071C122.763 271.354 122.452 271.58 122.064 271.58C121.753 271.58 121.442 271.806 121.442 272.032C121.442 272.315 121.132 272.541 120.743 272.541C120.432 272.541 120.121 272.767 120.121 272.994C120.121 273.276 119.811 273.503 119.422 273.503C118.878 273.503 118.723 274.407 118.723 286.056H117.402C116.521 286.056 116.081 286.226 116.081 286.565C116.081 286.867 115.64 287.017 114.76 287.017C113.879 287.017 113.439 287.187 113.439 287.526C113.439 287.866 113.128 287.922 112.506 287.866C111.885 287.753 108.932 287.696 105.824 287.696C101.084 287.696 100.152 287.639 100.152 287.187C100.152 286.886 99.7112 286.735 98.8305 286.735C97.9498 286.735 97.5095 286.565 97.5095 286.226C97.5095 285.943 97.1987 285.717 96.8102 285.717C96.4994 285.717 96.1885 285.491 96.1885 285.265C96.1885 284.982 95.8777 284.756 95.4892 284.756C95.1784 284.756 94.8676 284.529 94.8676 284.303C94.8676 284.02 94.6344 283.794 94.4013 283.794C94.1682 283.794 94.0128 283.625 94.1682 283.512C94.3236 283.342 94.1682 283.172 93.9351 283.172C93.702 283.172 93.5466 282.889 93.5466 282.494C93.5466 282.154 93.3912 281.872 93.2358 281.872C93.0026 281.872 92.4587 281.306 91.9925 280.684C91.5262 280.006 91.1377 279.384 91.2154 279.214C91.2154 279.044 91.06 278.988 90.7492 278.988C90.5161 278.988 90.4384 278.875 90.5161 278.705C90.7492 278.592 90.283 278.139 89.5836 277.744C88.962 277.348 87.5633 276.5 86.3977 275.878C85.3099 275.256 83.2895 274.407 81.9685 274.012C80.6476 273.616 79.5597 273.107 79.7151 272.881C79.7151 272.654 79.5597 272.541 79.3266 272.541C79.0935 272.541 79.0158 272.428 79.0935 272.259C79.1712 272.145 78.3164 271.58 77.0731 270.958C75.9076 270.449 74.742 269.94 74.4312 269.94C74.2758 269.94 74.0426 269.601 74.0426 269.148C74.0426 268.64 73.7318 268.3 73.3433 268.3C73.0325 268.3 72.7217 268.131 72.7217 267.848C72.7217 267.565 72.4108 267.339 72.0223 267.339C71.6338 267.339 71.323 267.226 71.323 267.056C71.323 266.887 71.0121 266.491 70.7013 266.208C70.3128 265.982 70.002 265.473 70.002 265.077C70.002 264.738 69.8466 264.455 69.6135 264.455C69.3803 264.455 68.0594 263.211 66.8161 261.684C65.1066 259.648 63.8633 258.574 62.0761 257.613C60.7551 256.878 59.201 255.973 58.7348 255.52C58.2685 255.068 57.103 254.22 56.3259 253.541C55.4712 252.863 53.9171 251.845 52.8292 251.166C51.819 250.488 50.8089 249.922 50.5758 249.922C50.3426 249.922 50.1095 249.696 50.1095 249.47C50.1095 249.187 49.7987 248.961 49.4102 248.961C49.0994 248.961 48.7885 248.791 48.7885 248.565C48.7885 248.395 48.4777 248 48.0892 247.773C47.7784 247.547 47.5453 247.208 47.623 247.038C47.7784 246.869 47.3121 246.36 46.5351 245.794C45.8358 245.342 45.2918 244.776 45.2141 244.55C45.2141 244.324 44.9033 244.154 44.5925 244.154C44.0485 244.154 43.8931 243.532 43.8931 240.592C43.8931 237.878 44.0485 236.973 44.5925 236.577C45.0587 236.238 45.2141 235.333 45.2141 233.354C45.2141 231.092 45.0587 230.583 44.5925 230.583C44.0485 230.583 43.8931 230.187 43.8931 229.169C43.8931 228.208 43.7377 227.699 43.3492 227.699C43.0384 227.699 42.7276 227.303 42.6499 226.851C42.5721 226.285 42.2613 225.833 41.8728 225.663C41.4843 225.55 41.2512 224.928 41.2512 224.137C41.2512 223.232 41.0958 222.836 40.5518 222.836Z" fill="white" fill-opacity="0.6" stroke="#4A4A4A" stroke-width="0.5"/>
<path d="M107.455 258.292C106.29 258.292 106.29 258.235 106.989 258.009C107.533 257.84 108.232 257.727 108.543 257.727C108.932 257.727 111.107 258.801 113.439 260.158C115.77 261.515 117.946 262.759 118.256 262.985C118.645 263.212 119.189 263.212 120.199 262.929C121.365 262.646 122.064 262.646 123.618 262.929C124.628 263.155 125.638 263.494 125.638 263.664C125.794 263.834 124.939 263.834 123.618 263.608C121.753 263.212 121.209 263.212 118.723 264.116L113.827 261.233C110.02 259.027 108.466 258.292 107.455 258.292Z" fill="white" fill-opacity="0.6" stroke="#4A4A4A" stroke-width="0.5"/>
<path d="M192.542 421.204C192.853 421.204 193.164 420.979 193.164 420.696C193.164 420.301 193.786 420.188 196.117 420.188C197.826 420.188 201.09 420.301 203.499 420.47C206.452 420.64 207.773 420.81 207.773 421.092C207.773 421.375 208.627 421.488 210.492 421.488C212.513 421.488 213.134 421.601 213.134 421.997C213.134 422.299 213.574 422.449 214.455 422.449C215.336 422.449 215.776 422.619 215.776 422.958C215.776 423.185 216.087 423.411 216.475 423.411C216.942 423.411 217.097 423.807 217.097 424.881C217.097 425.955 216.942 426.351 216.475 426.351C216.087 426.351 215.776 426.576 215.776 426.803C215.776 427.085 215.465 427.312 215.077 427.312C214.766 427.312 214.455 427.539 214.455 427.765C214.455 428.048 214.144 428.273 213.756 428.273C213.445 428.273 213.134 428.5 213.134 428.783C213.134 429.009 212.823 429.234 212.435 429.234C211.891 429.234 211.813 429.688 211.813 433.137L210.492 432.854C209.327 432.685 209.093 432.741 209.093 433.193C209.093 433.476 208.783 433.759 208.472 433.759C208.006 433.759 207.773 434.079 207.773 434.72C207.773 435.361 208.006 435.682 208.472 435.682C208.783 435.682 209.093 435.908 209.093 436.19C209.093 436.417 209.404 436.643 209.793 436.643C210.181 436.643 210.492 436.869 210.492 437.152C210.492 437.378 210.803 437.604 211.114 437.604C211.502 437.604 211.813 437.83 211.813 438.113C211.813 438.396 212.124 438.565 212.435 438.565C212.823 438.565 213.134 438.792 213.134 439.074C213.134 439.357 213.445 439.583 213.756 439.583C214.144 439.583 214.455 439.81 214.455 440.036C214.455 440.318 214.766 440.545 215.077 440.545C215.543 440.545 215.698 440.714 215.543 440.997C215.388 441.28 215.621 441.506 216.009 441.506C216.424 441.506 216.631 441.826 216.631 442.467C216.631 443.108 216.864 443.428 217.33 443.428C217.874 443.428 217.952 443.824 217.952 445.351C217.952 446.878 218.107 447.273 218.651 447.273C219.117 447.273 219.351 447.669 219.351 448.743C219.351 449.817 219.506 450.214 219.972 450.214C220.361 450.214 220.672 450.44 220.672 450.667C220.672 450.949 220.982 451.176 221.293 451.176C221.682 451.176 221.993 451.402 221.993 451.628C221.993 451.911 222.303 452.137 222.614 452.137C223.003 452.137 223.314 452.363 223.314 452.646C223.314 452.872 223.624 453.098 223.935 453.098C224.324 453.098 224.634 453.324 224.634 453.607C224.634 453.833 224.945 454.116 225.334 454.229C225.645 454.342 225.955 454.738 225.955 455.19C225.955 455.643 226.266 456.095 226.655 456.152C226.966 456.265 227.276 456.547 227.276 456.829C227.276 457.056 227.587 457.283 227.976 457.283C228.39 457.283 228.597 457.602 228.597 458.243C228.597 458.884 228.831 459.204 229.297 459.204C229.608 459.204 229.918 459.432 229.918 459.714C229.918 459.997 230.229 460.223 230.618 460.223C231.032 460.223 231.239 460.544 231.239 461.185C231.239 461.825 231.473 462.146 231.939 462.146C232.327 462.146 232.638 462.372 232.638 462.598C232.638 462.881 232.949 463.107 233.26 463.107C233.726 463.107 233.959 463.428 233.959 464.068C233.959 464.709 234.166 465.03 234.581 465.03C235.047 465.03 235.28 465.35 235.28 465.991C235.28 466.632 235.487 466.952 235.902 466.952C236.446 466.952 236.601 467.348 236.601 468.423C236.601 469.497 236.756 469.893 237.223 469.893C237.767 469.893 237.922 470.402 237.922 472.946C237.922 475.152 237.767 476 237.378 476C237.067 476 235.979 475.039 235.047 473.851C233.726 472.211 232.25 471.08 225.178 466.783L223.857 463.164C222.77 459.884 222.459 459.375 220.982 458.301C220.05 457.679 218.496 456.999 217.641 456.829C216.165 456.49 215.854 456.208 213.756 453.098C211.58 449.932 211.036 449.422 205.131 444.898C201.556 442.24 196.972 439.131 190.755 435.795L189.279 430.479C188.502 427.595 187.802 424.938 187.88 424.655C187.88 424.315 188.191 424.089 188.502 424.089C188.89 424.089 189.201 423.862 189.201 423.579C189.201 423.353 189.512 423.128 189.823 423.128C190.211 423.128 190.522 422.901 190.522 422.618C190.522 422.392 190.833 422.167 191.221 422.167C191.532 422.167 191.843 421.94 191.843 421.658C191.843 421.432 192.154 421.204 192.542 421.204Z" fill="white" fill-opacity="0.6" stroke="#4A4A4A" stroke-width="0.5"/>
<path d="M188.346 429.914C188.113 429.914 187.88 429.235 187.88 428.387C187.958 426.973 188.035 426.917 188.346 427.765C188.502 428.33 188.657 429.009 188.735 429.348C188.735 429.631 188.502 429.914 188.346 429.914Z" fill="white" fill-opacity="0.6" stroke="#4A4A4A" stroke-width="0.5"/>
<path d="M189.667 434.721C189.434 434.721 189.201 434.042 189.201 433.194C189.279 431.837 189.356 431.78 189.667 432.628C189.822 433.194 189.978 433.872 190.056 434.155C190.056 434.438 189.822 434.721 189.667 434.721Z" fill="white" fill-opacity="0.6" stroke="#4A4A4A" stroke-width="0.5"/>
<path d="M190.912 437.378C190.756 437.604 190.601 437.378 190.679 436.926V436.021L194.098 437.717C195.885 438.679 200.469 441.677 204.199 444.391C210.726 449.254 211.037 449.536 213.368 452.929C215.7 456.435 215.7 456.491 217.72 456.887C219.274 457.226 220.129 457.622 221.139 458.697C222.071 459.601 222.926 460.959 223.625 462.882C224.48 465.257 224.558 465.708 223.936 465.708C223.548 465.708 223.004 464.86 222.382 463.051C221.916 461.581 221.294 459.998 220.983 459.546C220.673 459.093 219.662 458.471 218.652 458.076C217.642 457.736 216.477 457.34 215.933 457.227C215.156 457.058 214.145 455.927 212.436 453.382C210.338 450.385 209.25 449.197 206.142 446.822C204.044 445.182 201.868 443.711 201.324 443.429C200.702 443.146 200.236 442.807 200.236 442.637C200.236 442.467 199.537 441.789 198.604 441.167C197.672 440.488 195.652 439.301 194.098 438.453C192 437.435 191.067 437.095 190.912 437.378Z" fill="white" fill-opacity="0.6" stroke="#4A4A4A" stroke-width="0.5"/>
<path d="M192.853 439.584C192.387 439.131 191.843 438.453 191.688 438.057C191.454 437.378 191.688 437.491 194.096 438.679C195.65 439.414 197.671 440.601 198.681 441.223C200.235 442.241 200.39 442.411 199.458 442.354C198.914 442.354 198.526 442.185 198.526 442.072C198.526 441.902 198.292 441.902 198.059 441.959C197.748 442.072 197.593 442.072 197.593 441.902C197.593 441.732 196.894 441.393 195.961 441.054C195.029 440.715 194.174 440.375 193.941 440.375C193.863 440.375 193.319 440.036 192.853 439.584Z" fill="white" fill-opacity="0.6" stroke="#4A4A4A" stroke-width="0.5"/>
<path d="M204.975 445.068C203.11 443.711 201.634 442.58 201.634 442.58C201.634 442.505 201.686 442.467 201.789 442.467C202.022 442.467 203.499 443.598 208.472 447.443L204.975 445.068Z" fill="white" fill-opacity="0.6" stroke="#4A4A4A" stroke-width="0.5"/>
<path d="M226.266 468.422C225.334 467.857 224.634 467.235 224.712 467.009C224.79 466.726 225.722 467.122 227.276 468.14C228.597 468.988 230.54 470.175 231.472 470.797C232.483 471.42 234.037 472.833 234.891 473.908C235.902 475.095 236.29 475.887 235.979 475.943C235.668 476 235.047 475.661 234.503 475.152C233.959 474.643 233.26 473.964 233.027 473.681C232.767 473.304 232.767 473.173 233.027 473.286C233.337 473.342 233.337 473.229 233.104 472.89C232.871 472.55 232.327 472.042 231.861 471.815C231.162 471.363 231.162 471.42 231.939 472.155C232.405 472.607 231.706 472.155 230.385 471.137C229.064 470.175 227.199 468.931 226.266 468.422Z" fill="white" fill-opacity="0.6" stroke="#4A4A4A" stroke-width="0.5"/>
</svg>
